<?xml version="1.0" encoding="UTF-8"?>
<!--Generator: Apple Native CoreSVG 341-->
<!DOCTYPE svg
PUBLIC "-//W3C//DTD SVG 1.1//EN"
       "http://www.w3.org/Graphics/SVG/1.1/DTD/svg11.dtd">
<svg version="1.1" xmlns="http://www.w3.org/2000/svg" xmlns:xlink="http://www.w3.org/1999/xlink" viewBox="0 0 157.98 109.62">
 <g>
  <path d="M137.312 109.57L151.705 109.57C155.49 109.57 157.98 106.931 157.98 103.096L157.98 6.47461C157.98 2.58984 155.49 0 151.705 0L137.312 0C133.526 0 130.986 2.58984 130.986 6.47461L130.986 103.096C130.986 106.931 133.526 109.57 137.312 109.57Z" fill="black" fill-opacity="0.85"/>
  <path d="M93.6328 109.57L107.977 109.57C111.762 109.57 114.302 106.931 114.302 103.096L114.302 31.6758C114.302 27.791 111.762 25.2012 107.977 25.2012L93.6328 25.2012C89.8477 25.2012 87.3076 27.791 87.3076 31.6758L87.3076 103.096C87.3076 106.931 89.8477 109.57 93.6328 109.57Z" fill="black" fill-opacity="0.85"/>
  <path d="M49.9541 109.57L64.3477 109.57C68.1328 109.57 70.6729 106.931 70.6729 103.096L70.6729 54.7354C70.6729 50.8506 68.1328 48.2607 64.3477 48.2607L49.9541 48.2607C46.2188 48.2607 43.6787 50.8506 43.6787 54.7354L43.6787 103.096C43.6787 106.931 46.2188 109.57 49.9541 109.57Z" fill="black" fill-opacity="0.85"/>
  <path d="M6.3252 109.57L20.6689 109.57C24.4541 109.57 26.9941 106.931 26.9941 103.096L26.9941 74.6074C26.9941 70.7725 24.4541 68.1826 20.6689 68.1826L6.3252 68.1826C2.54004 68.1826 0 70.7725 0 74.6074L0 103.096C0 106.931 2.54004 109.57 6.3252 109.57Z" fill="black" fill-opacity="0.85"/>
 </g>
</svg>
