<?xml version="1.0" encoding="UTF-8"?>
<!--Generator: Apple Native CoreSVG 341-->
<!DOCTYPE svg
PUBLIC "-//W3C//DTD SVG 1.1//EN"
       "http://www.w3.org/Graphics/SVG/1.1/DTD/svg11.dtd">
<svg version="1.1" xmlns="http://www.w3.org/2000/svg" xmlns:xlink="http://www.w3.org/1999/xlink" viewBox="0 0 103.893 129.243">
 <g>
  <path d="M51.9463 129.243C53.0918 129.243 54.6357 128.745 56.1797 127.948C92.3877 108.325 103.893 99.46 103.893 77.1973L103.893 28.7373C103.893 22.0137 101.253 19.8223 95.5752 17.4814C87.0586 14.0947 65.5928 6.12598 57.0762 3.2373C55.3828 2.68945 53.6895 2.29102 51.9463 2.29102C50.2031 2.29102 48.5098 2.73926 46.8164 3.2373C38.2998 6.12598 16.834 14.1445 8.31738 17.4814C2.63965 19.7227 0 22.0137 0 28.7373L0 77.1973C0 99.46 12.1025 107.329 47.7129 127.948C49.207 128.795 50.8008 129.243 51.9463 129.243Z" fill="black" fill-opacity="0.85"/>
 </g>
</svg>
