<svg width="200" height="200" viewBox="0 0 1024 1024" fill="none" xmlns="http://www.w3.org/2000/svg">
<path d="M512.5 908.5C506.25 908.5 496.875 906.547 486.719 901.078C268.359 778.031 192.969 726.469 192.969 586.234V291.703C192.969 251.469 210.547 238.188 242.969 224.906C288.672 206.547 434.766 152.25 480.469 137.406C490.625 134.281 501.562 131.938 512.5 131.938C523.438 131.938 534.375 133.891 544.922 137.406C590.234 153.031 736.328 206.156 782.031 224.906C814.844 238.578 832.031 251.469 832.031 291.703V586.234C832.031 726.469 760.547 784.672 538.281 901.078C528.516 906.156 518.75 908.5 512.5 908.5Z" fill="url(#paint0_linear_758_4724)"/>
<path d="M658.777 642.387C649.695 642.387 643.396 635.941 643.396 626.42V404.057C643.396 394.535 649.695 388.09 658.777 388.09H694.373C703.455 388.09 709.607 394.535 709.607 404.057V626.42C709.607 635.941 703.455 642.387 694.373 642.387H658.777ZM549.207 642.387C539.979 642.387 533.826 635.941 533.826 626.42V461.918C533.826 452.396 539.979 445.951 549.207 445.951H584.51C593.592 445.951 599.891 452.396 599.891 461.918V626.42C599.891 635.941 593.592 642.387 584.51 642.387H549.207ZM439.49 642.387C430.262 642.387 424.109 635.941 424.109 626.42V514.945C424.109 505.424 430.262 498.979 439.49 498.979H474.793C484.021 498.979 490.174 505.424 490.174 514.945V626.42C490.174 635.941 484.021 642.387 474.793 642.387H439.49ZM329.773 642.387C320.545 642.387 314.393 635.941 314.393 626.42V560.648C314.393 551.127 320.545 544.828 329.773 544.828H365.076C374.305 544.828 380.457 551.127 380.457 560.648V626.42C380.457 635.941 374.305 642.387 365.076 642.387H329.773Z" fill="url(#paint1_linear_758_4724)"/>
<defs>
<linearGradient id="paint0_linear_758_4724" x1="631.51" y1="158.844" x2="327.469" y2="945.845" gradientUnits="userSpaceOnUse">
<stop offset="0.046875" stop-color="#0DA8FF"/>
<stop offset="1" stop-color="#0D25FF"/>
</linearGradient>
<linearGradient id="paint1_linear_758_4724" x1="512" y1="335" x2="512" y2="693" gradientUnits="userSpaceOnUse">
<stop stop-color="white"/>
<stop offset="1" stop-color="white" stop-opacity="0.92"/>
</linearGradient>
</defs>
</svg>
